# xmcd CD database file
#
# Track frame offsets:
#	150
#	6247
#	25133
#	46977
#	66270
#	86181
#	112847
#	138398
#	151373
#	174762
#	191826
#	217408
#	248913
#	272215
#	289357
#	326182
#
# Disc length: 4534 seconds
#
# Revision: 4
# Processed by: cddbd v1.5.2PL0 Copyright (c) Steve Scherf et al.
# Submitted via: CDex 1.51
#
DISCID=f411b410
DTITLE=Trivium - Ascendancy
DYEAR=2005
DGENRE=Metal
TTITLE0=The End Of Everything
TTITLE1=Rain
TTITLE2=Pull Harder On The Strings Of Your Martyr
TTITLE3=Drowned And Torn Asunder
TTITLE4=Ascendancy
TTITLE5=A Gunshot To The Head Of Trepidation
TTITLE6=Like Light To The Flies
TTITLE7=Dying In Your Arms
TTITLE8=The Deceived
TTITLE9=Suffocating Sight
TTITLE10=Departure
TTITLE11=Declaration
TTITLE12=Blinding Tears Will Break The Skies
TTITLE13=Washing Away Me In The Tides
TTITLE14=Master Of Puppets
TTITLE15=Dying In Your Arms (Video Mix)
EXTD=YEAR: 2005
EXTT0=
EXTT1=
EXTT2=
EXTT3=
EXTT4=
EXTT5=
EXTT6=
EXTT7=
EXTT8=
EXTT9=
EXTT10=
EXTT11=
EXTT12=
EXTT13=
EXTT14=
EXTT15=
PLAYORDER=
